<svg width="30" height="30" viewBox="0 0 30 30" fill="none" xmlns="http://www.w3.org/2000/svg">
<path d="M15 2.8125C12.5895 2.8125 10.2332 3.52728 8.22899 4.86646C6.22477 6.20564 4.66267 8.10907 3.74022 10.336C2.81778 12.563 2.57643 15.0135 3.04668 17.3777C3.51694 19.7418 4.67769 21.9134 6.38214 23.6179C8.08659 25.3223 10.2582 26.4831 12.6223 26.9533C14.9865 27.4236 17.437 27.1822 19.664 26.2598C21.8909 25.3373 23.7944 23.7752 25.1335 21.771C26.4727 19.7668 27.1875 17.4105 27.1875 15C27.1842 11.7687 25.8991 8.67067 23.6142 6.38579C21.3293 4.10091 18.2313 2.81581 15 2.8125ZM20 15.9375H15.9375V20C15.9375 20.2486 15.8387 20.4871 15.6629 20.6629C15.4871 20.8387 15.2486 20.9375 15 20.9375C14.7514 20.9375 14.5129 20.8387 14.3371 20.6629C14.1613 20.4871 14.0625 20.2486 14.0625 20V15.9375H10C9.75136 15.9375 9.51291 15.8387 9.33709 15.6629C9.16128 15.4871 9.06251 15.2486 9.06251 15C9.06251 14.7514 9.16128 14.5129 9.33709 14.3371C9.51291 14.1613 9.75136 14.0625 10 14.0625H14.0625V10C14.0625 9.75136 14.1613 9.5129 14.3371 9.33709C14.5129 9.16127 14.7514 9.0625 15 9.0625C15.2486 9.0625 15.4871 9.16127 15.6629 9.33709C15.8387 9.5129 15.9375 9.75136 15.9375 10V14.0625H20C20.2486 14.0625 20.4871 14.1613 20.6629 14.3371C20.8387 14.5129 20.9375 14.7514 20.9375 15C20.9375 15.2486 20.8387 15.4871 20.6629 15.6629C20.4871 15.8387 20.2486 15.9375 20 15.9375Z" fill="#3F7AFF"/>
</svg>
