<svg width="20" height="21" viewBox="0 0 20 21" fill="none" xmlns="http://www.w3.org/2000/svg">
<g clip-path="url(#clip0_536_11023)">
<path d="M16.2114 9.10516C15.8878 9.10516 15.6255 9.38063 15.6255 9.72041V18.7441C15.6255 19.3096 15.1874 19.7696 14.6489 19.7696H2.1485C1.61001 19.7696 1.17191 19.3096 1.17191 18.7441V5.61872C1.17191 5.0533 1.61001 4.5933 2.1485 4.5933H10.7425C11.0661 4.5933 11.3285 4.31783 11.3285 3.97805C11.3285 3.63826 11.0661 3.36279 10.7425 3.36279H2.1485C0.963819 3.36279 0 4.3748 0 5.61872V18.7441C0 19.9881 0.963819 21.0001 2.1485 21.0001H14.6489C15.8336 21.0001 16.7974 19.9881 16.7974 18.7441V9.72041C16.7974 9.38063 16.535 9.10516 16.2114 9.10516Z" fill="black"/>
<path d="M19.6002 1.57995L18.4953 0.419788C17.9622 -0.139929 17.0949 -0.139929 16.5617 0.419788L7.72267 9.70085C7.64087 9.78674 7.58513 9.89613 7.56239 10.0152L7.00991 12.9156C6.97151 13.1173 7.03163 13.3258 7.17019 13.4713C7.28117 13.5878 7.43067 13.6515 7.5845 13.6515C7.62275 13.6515 7.66118 13.6476 7.69939 13.6396L10.4616 13.0595C10.5751 13.0356 10.6792 12.9771 10.761 12.8912L19.6002 3.61016C19.6002 3.61016 19.6002 3.61016 19.6002 3.61012C20.1333 3.05045 20.1333 2.13971 19.6002 1.57995ZM10.0579 11.8894L8.33148 12.252L8.6768 10.4393L15.8712 2.88507L17.2523 4.33526L10.0579 11.8894ZM18.7715 2.74007L18.081 3.46517L16.6998 2.01498L17.3904 1.28992C17.4665 1.20994 17.5904 1.2099 17.6666 1.28988L18.7715 2.45004C18.8477 2.52998 18.8477 2.66013 18.7715 2.74007Z" fill="black"/>
</g>
<defs>
<clipPath id="clip0_536_11023">
<rect width="20" height="21" fill="white"/>
</clipPath>
</defs>
</svg>
