<svg width="33" height="32" viewBox="0 0 33 32" fill="none" xmlns="http://www.w3.org/2000/svg">
<g clip-path="url(#clip0_817_2857)">
<path d="M8.93949 6.40005C8.93949 5.51642 9.65406 4.80005 10.5355 4.80005H31.283C32.1644 4.80005 32.879 5.51642 32.879 6.40005C32.879 7.28367 32.1644 8.00005 31.283 8.00005H10.5355C9.65406 8.00005 8.93949 7.28361 8.93949 6.40005ZM31.283 14.4H2.55562C1.67422 14.4 0.959656 15.1165 0.959656 16C0.959656 16.8837 1.67422 17.6 2.55562 17.6H31.283C32.1644 17.6 32.879 16.8837 32.879 16C32.879 15.1165 32.1644 14.4 31.283 14.4ZM31.283 24H16.9193C16.038 24 15.3234 24.7164 15.3234 25.6C15.3234 26.4836 16.038 27.2001 16.9193 27.2001H31.283C32.1644 27.2001 32.879 26.4836 32.879 25.6C32.879 24.7164 32.1644 24 31.283 24Z" fill="black"/>
</g>
<defs>
<clipPath id="clip0_817_2857">
<rect width="31.9193" height="32" fill="white" transform="translate(0.959656)"/>
</clipPath>
</defs>
</svg>
