<svg width="24" height="24" viewBox="0 0 24 24" fill="none" xmlns="http://www.w3.org/2000/svg">
<path d="M8.79746 11.1975C8.58462 11.1975 8.38051 11.1129 8.23001 10.9624C8.07951 10.8119 7.99496 10.6078 7.99496 10.395V7.99498C7.98415 7.88358 7.99677 7.77116 8.03199 7.66492C8.06722 7.55869 8.12427 7.461 8.19949 7.37813C8.27471 7.29526 8.36644 7.22903 8.46877 7.18372C8.57111 7.1384 8.68179 7.11499 8.79371 7.11499C8.90563 7.11499 9.01631 7.1384 9.11865 7.18372C9.22098 7.22903 9.31271 7.29526 9.38793 7.37813C9.46315 7.461 9.52021 7.55869 9.55543 7.66492C9.59065 7.77116 9.60327 7.88358 9.59246 7.99498V10.395C9.59247 10.6065 9.50895 10.8095 9.36007 10.9598C9.21119 11.1101 9.00899 11.1955 8.79746 11.1975Z" fill="#DBE3F4"/>
<path d="M11.9999 11.1975C11.7871 11.1975 11.583 11.1129 11.4325 10.9624C11.282 10.8119 11.1974 10.6078 11.1974 10.395V7.19999C11.2167 7.0015 11.3092 6.81729 11.4568 6.68326C11.6045 6.54923 11.7968 6.47498 11.9962 6.47498C12.1956 6.47498 12.3879 6.54923 12.5356 6.68326C12.6832 6.81729 12.7757 7.0015 12.7949 7.19999V10.4025C12.793 10.6127 12.7086 10.8138 12.5599 10.9625C12.4113 11.1111 12.2102 11.1955 11.9999 11.1975Z" fill="#DBE3F4"/>
<path d="M15.2025 11.1975C14.9897 11.1975 14.7855 11.113 14.635 10.9625C14.4845 10.812 14.4 10.6079 14.4 10.395V5.60252C14.3892 5.49113 14.4018 5.3787 14.437 5.27247C14.4722 5.16624 14.5293 5.06855 14.6045 4.98567C14.6797 4.9028 14.7715 4.83658 14.8738 4.79126C14.9761 4.74594 15.0868 4.72253 15.1987 4.72253C15.3107 4.72253 15.4213 4.74594 15.5237 4.79126C15.626 4.83658 15.7177 4.9028 15.793 4.98567C15.8682 5.06855 15.9252 5.16624 15.9605 5.27247C15.9957 5.3787 16.0083 5.49113 15.9975 5.60252V10.4025C15.9955 10.6128 15.9111 10.8138 15.7625 10.9625C15.6138 11.1112 15.4127 11.1956 15.2025 11.1975Z" fill="#DBE3F4"/>
<path d="M18.3975 24H5.60247C4.75311 24 3.93854 23.6626 3.33796 23.062C2.73737 22.4614 2.39997 21.6469 2.39997 20.7975V6.3C2.39906 5.71309 2.52764 5.1332 2.77655 4.60168C3.02545 4.07016 3.38856 3.6001 3.83997 3.225L6.59997 0.93C7.31811 0.331549 8.22266 0.00261963 9.15747 0L18.3975 0C19.2468 0 20.0614 0.337405 20.662 0.937991C21.2626 1.53858 21.6 2.35314 21.6 3.2025V20.7975C21.6 21.6469 21.2626 22.4614 20.662 23.062C20.0614 23.6626 19.2468 24 18.3975 24ZM9.15747 1.5975C8.60883 1.60616 8.07961 1.80197 7.65747 2.1525L4.85997 4.455C4.58932 4.68013 4.37168 4.96222 4.22259 5.28114C4.07351 5.60006 3.99664 5.94795 3.99747 6.3V20.7975C3.99944 21.2206 4.16838 21.6258 4.46754 21.9249C4.76671 22.2241 5.17189 22.393 5.59497 22.395H18.3975C18.8205 22.393 19.2257 22.2241 19.5249 21.9249C19.8241 21.6258 19.993 21.2206 19.995 20.7975V3.2025C19.993 2.77942 19.8241 2.37424 19.5249 2.07508C19.2257 1.77591 18.8205 1.60697 18.3975 1.605L9.15747 1.5975Z" fill="#DBE3F4"/>
<path d="M16.8 19.2H7.2C7.0886 19.2108 6.97617 19.1982 6.86994 19.163C6.76371 19.1278 6.66602 19.0707 6.58315 18.9955C6.50027 18.9203 6.43405 18.8285 6.38873 18.7262C6.34342 18.6239 6.32001 18.5132 6.32001 18.4013C6.32001 18.2893 6.34342 18.1787 6.38873 18.0763C6.43405 17.974 6.50027 17.8823 6.58315 17.807C6.66602 17.7318 6.76371 17.6748 6.86994 17.6395C6.97617 17.6043 7.0886 17.5917 7.2 17.6025H16.8C16.9114 17.5917 17.0238 17.6043 17.1301 17.6395C17.2363 17.6748 17.334 17.7318 17.4168 17.807C17.4997 17.8823 17.5659 17.974 17.6113 18.0763C17.6566 18.1787 17.68 18.2893 17.68 18.4013C17.68 18.5132 17.6566 18.6239 17.6113 18.7262C17.5659 18.8285 17.4997 18.9203 17.4168 18.9955C17.334 19.0707 17.2363 19.1278 17.1301 19.163C17.0238 19.1982 16.9114 19.2108 16.8 19.2Z" fill="#DBE3F4"/>
<path d="M16.8 15.2024H7.19999C7.0015 15.1832 6.81729 15.0907 6.68326 14.9431C6.54923 14.7954 6.47498 14.6031 6.47498 14.4037C6.47498 14.2043 6.54923 14.012 6.68326 13.8643C6.81729 13.7167 7.0015 13.6242 7.19999 13.6049H16.8C16.9114 13.5941 17.0238 13.6068 17.13 13.642C17.2363 13.6772 17.334 13.7343 17.4168 13.8095C17.4997 13.8847 17.5659 13.9764 17.6112 14.0788C17.6566 14.1811 17.68 14.2918 17.68 14.4037C17.68 14.5156 17.6566 14.6263 17.6112 14.7286C17.5659 14.831 17.4997 14.9227 17.4168 14.9979C17.334 15.0731 17.2363 15.1302 17.13 15.1654C17.0238 15.2006 16.9114 15.2133 16.8 15.2024Z" fill="#DBE3F4"/>
</svg>
