<svg width="25" height="25" viewBox="0 0 25 25" fill="none" xmlns="http://www.w3.org/2000/svg">
<path d="M15.6621 19.5299C15.6539 19.5299 15.6457 19.5299 15.6375 19.5295C15.2063 19.5162 14.8676 19.1557 14.8805 18.7244L15.168 9.34942C15.1813 8.91817 15.5317 8.57559 15.9731 8.59239C16.4043 8.60567 16.743 8.96622 16.7301 9.39747L16.4426 18.7725C16.4297 19.1959 16.0824 19.5299 15.6621 19.5299Z" fill="#FF0000"/>
<path d="M9.72923 19.53C9.30892 19.53 8.96166 19.196 8.94877 18.773L8.66127 9.39796C8.64799 8.96671 8.98666 8.60616 9.4183 8.59288C9.85111 8.57608 10.2101 8.91827 10.2234 9.34991L10.5109 18.7249C10.5242 19.1562 10.1855 19.5167 9.75384 19.53C9.74564 19.53 9.73744 19.53 9.72923 19.53Z" fill="#FF0000"/>
<path d="M12.8911 19.5303C12.4599 19.5303 12.1099 19.1803 12.1099 18.749V9.37402C12.1099 8.94277 12.4599 8.59277 12.8911 8.59277C13.3224 8.59277 13.6724 8.94277 13.6724 9.37402V18.749C13.6724 19.1807 13.3228 19.5303 12.8911 19.5303Z" fill="#FF0000"/>
<path d="M17.5789 22.6553H7.42188C6.99063 22.6553 6.64062 22.3053 6.64062 21.874C6.64062 21.4428 6.99063 21.0928 7.42188 21.0928H17.5789C18.0102 21.0928 18.3602 21.4428 18.3602 21.874C18.3602 22.3053 18.0105 22.6553 17.5789 22.6553Z" fill="#FF0000"/>
<path d="M18.3598 21.913C18.3465 21.913 18.3336 21.9126 18.3199 21.9122C17.8891 21.8907 17.557 21.5239 17.5789 21.0927L18.323 6.20984C18.3449 5.77898 18.7105 5.45281 19.1426 5.46883C19.5734 5.49031 19.9055 5.85711 19.8836 6.28836L19.1395 21.1712C19.1187 21.5884 18.7738 21.913 18.3598 21.913Z" fill="#FF0000"/>
<path d="M17.5789 22.6552C17.1476 22.6552 16.7976 22.3052 16.7976 21.8739C16.7976 21.4427 17.1476 21.0927 17.5789 21.0927H17.5796C17.6015 20.6614 17.966 20.3243 18.3988 20.3517C18.8296 20.3731 19.1613 20.7399 19.1394 21.1712C19.098 22.0032 18.4125 22.6552 17.5789 22.6552Z" fill="#FF0000"/>
<path d="M6.64103 21.9127C6.22735 21.9127 5.88243 21.5881 5.86134 21.1705L5.1172 6.28767C5.09571 5.85642 5.42735 5.49002 5.85821 5.46814C6.29298 5.44822 6.65587 5.77869 6.67774 6.20916L7.42189 21.0924C7.44337 21.5236 7.11173 21.89 6.68087 21.9119C6.6672 21.9123 6.65392 21.9127 6.64103 21.9127Z" fill="#FF0000"/>
<path d="M7.42189 22.6549C6.58829 22.6549 5.90275 22.0029 5.86134 21.1705C5.83985 20.7393 6.1715 20.3729 6.60235 20.351C7.03673 20.3307 7.40001 20.6611 7.42189 21.092V21.0928C7.85314 21.0928 8.20314 21.4424 8.20314 21.8736C8.20314 22.3049 7.85314 22.6549 7.42189 22.6549Z" fill="#FF0000"/>
<path d="M15.625 7.03027C15.1938 7.03027 14.8438 6.68027 14.8438 6.24902V3.90527C14.8438 3.47402 15.1938 3.12402 15.625 3.12402C16.0562 3.12402 16.4062 3.47402 16.4062 3.90527V6.24902C16.4062 6.68066 16.0562 7.03027 15.625 7.03027Z" fill="#FF0000"/>
<path d="M9.375 7.03027C8.94375 7.03027 8.59375 6.68027 8.59375 6.24902V3.90527C8.59375 3.47402 8.94375 3.12402 9.375 3.12402C9.80625 3.12402 10.1562 3.47402 10.1562 3.90527V6.24902C10.1562 6.68066 9.80625 7.03027 9.375 7.03027Z" fill="#FF0000"/>
<path d="M20.3133 7.03027H4.68677C4.25552 7.03027 3.90552 6.68027 3.90552 6.24902C3.90552 5.81777 4.25552 5.46777 4.68677 5.46777H20.3137C20.745 5.46777 21.095 5.81777 21.095 6.24902C21.095 6.68027 20.745 7.03027 20.3133 7.03027Z" fill="#FF0000"/>
<path d="M9.37461 4.68652C8.94336 4.68652 8.59375 4.33652 8.59375 3.90527C8.59375 3.04355 9.29453 2.34277 10.1562 2.34277C10.5875 2.34277 10.9375 2.69277 10.9375 3.12402C10.9375 3.55527 10.5875 3.90527 10.1562 3.90527H10.1555C10.1555 4.33691 9.80625 4.68652 9.37461 4.68652Z" fill="#FF0000"/>
<path d="M14.8438 3.90527H10.1562C9.725 3.90527 9.375 3.55527 9.375 3.12402C9.375 2.69277 9.725 2.34277 10.1562 2.34277H14.8438C15.275 2.34277 15.625 2.69277 15.625 3.12402C15.625 3.55527 15.275 3.90527 14.8438 3.90527Z" fill="#FF0000"/>
<path d="M15.625 4.68652C15.1938 4.68652 14.8438 4.33652 14.8438 3.90527V3.90449C14.4125 3.90449 14.0625 3.55527 14.0625 3.12363C14.0625 2.69238 14.4125 2.34277 14.8438 2.34277C15.7055 2.34277 16.4062 3.04355 16.4062 3.90527C16.4062 4.33691 16.0562 4.68652 15.625 4.68652Z" fill="#FF0000"/>
</svg>
